<svg xmlns="http://www.w3.org/2000/svg" xmlns:xlink="http://www.w3.org/1999/xlink" viewBox="0 0 750 500"><defs><style>.cls-1{isolation:isolate;}.cls-2{fill:#fff;}.cls-3{fill:url(#linear-gradient);}.cls-4{fill:#c1bed7;}.cls-5{fill:#0cc3be;}.cls-6{fill:#0797a7;}.cls-7{fill:#343c4b;}.cls-8{fill:#456997;}.cls-9{fill:#414c5b;}.cls-10,.cls-14,.cls-16,.cls-17{mix-blend-mode:multiply;}.cls-11{fill:url(#linear-gradient-2);}.cls-12{fill:#ffd175;}.cls-13{fill:#dfdeee;}.cls-14{fill:url(#linear-gradient-3);}.cls-15{fill:#fd7658;}.cls-16{fill:url(#linear-gradient-4);}.cls-17{fill:url(#linear-gradient-5);}.cls-18{fill:#fcc700;}.cls-19{fill:#ff7658;}.cls-20{fill:#fda859;}.cls-21{fill:#ffa07f;}.cls-22{fill:#ff7d6f;}.cls-23{fill:#ffbf90;}.cls-24{fill:#fc5b68;}.cls-25{fill:#cf4a57;}.cls-26{fill:#3d4756;}.cls-27{fill:#495969;}</style><linearGradient id="linear-gradient" x1="372.89" y1="207.78" x2="372.89" y2="499.62" gradientUnits="userSpaceOnUse"><stop offset="0" stop-color="#dfdeee"/><stop offset="1" stop-color="#c1bed7"/></linearGradient><linearGradient id="linear-gradient-2" x1="431.39" y1="308.52" x2="431.39" y2="350.16" gradientUnits="userSpaceOnUse"><stop offset="0" stop-color="#e1e0f0" stop-opacity="0"/><stop offset="1" stop-color="#c3c0d9"/></linearGradient><linearGradient id="linear-gradient-3" x1="493.95" y1="271.21" x2="493.95" y2="371.56" xlink:href="#linear-gradient-2"/><linearGradient id="linear-gradient-4" x1="568.36" y1="224.97" x2="568.36" y2="374.66" xlink:href="#linear-gradient-2"/><linearGradient id="linear-gradient-5" x1="417.26" y1="208.96" x2="417.26" y2="298.11" xlink:href="#linear-gradient-2"/></defs><title>content</title><g class="cls-1"><g id="BACKGROUND"><rect class="cls-2" width="750" height="500"/></g><g id="OBJECTS"><path class="cls-3" d="M624.21,394.9c-20.72,4.32-44.21,4.14-66.34,1.79-16-1.69-31.81-4.09-47.6-6.66q-10.54-.11-21.39-.11c-89.46,0-165,5.53-189.53,13.11-19.21-1.3-41.14-2.16-64.61-2.45,46.4-9.51,92.47-21.16,139.93-23.88,46.06-2.64,90.64,6,135.6,13.33,43.86.43,83.43,2.21,113.94,4.87,38.37-8,67.2-31.46,60.16-85.37-10-76.29-93.54-86.66-139.53-119.63-30.59-21.93-39.06-71-59-103.75-12.73-20.91-31.74-43.28-57-49.45-25.65-6.26-53.92,3.15-74.65,18C335.92,67.9,326,83.86,301,83.89c-36.78,0-67-32.5-102.39-39.48-23.72-4.67-46.51,1.28-62.72,19-50.65,55.45-4.88,132-22.35,196.6-8.86,32.72-35.68,56.87-46.85,88.63-11.89,33.81,1.21,50.89,23.77,58.81C70.7,410.39,59,414,59,417.94c0,9.64,70.72,17.46,158,17.46,71.46,0,131.83-5.25,151.33-12.45,33.39,2.4,75.2,3.82,120.59,3.82,109.3,0,197.9-8.25,197.9-18.43C686.78,403,662.71,398.26,624.21,394.9Z"/><path class="cls-4" d="M457.93,135.94a27.71,27.71,0,1,0,27.72,27.71A27.75,27.75,0,0,0,457.93,135.94Zm2.16,4.77c3,1.23,5.62,4.93,7.31,10a48.48,48.48,0,0,1-7.31.83Zm-4.32,10.82a48.49,48.49,0,0,1-7.3-.83c1.69-5.06,4.31-8.76,7.3-10Zm0,4.33v5.63h-9.22a42.82,42.82,0,0,1,.82-6.6A52,52,0,0,0,455.77,155.86Zm0,9.95v5.65a52.22,52.22,0,0,0-8.4,1,43.09,43.09,0,0,1-.82-6.62Zm0,10v10.81c-3-1.22-5.61-4.92-7.29-10A48.21,48.21,0,0,1,455.77,175.78Zm4.32,0a48.49,48.49,0,0,1,7.3.83c-1.68,5.06-4.3,8.76-7.3,10Zm0-4.32v-5.65h9.23a43.09,43.09,0,0,1-.82,6.62A52.48,52.48,0,0,0,460.09,171.46Zm0-10v-5.63a51.69,51.69,0,0,0,8.41-1,42.82,42.82,0,0,1,.82,6.6Zm-17.86,0h-7.58a23.28,23.28,0,0,1,3.21-9.78,31.37,31.37,0,0,0,5.32,2.13A46.91,46.91,0,0,0,442.23,161.49Zm0,4.32a47.3,47.3,0,0,0,.95,7.67,30.88,30.88,0,0,0-5.32,2.12,23.27,23.27,0,0,1-3.21-9.79Zm31.41,0h7.58a23.23,23.23,0,0,1-3.21,9.78,32.58,32.58,0,0,0-5.32-2.12A47,47,0,0,0,473.64,165.81Zm0-4.32a46.91,46.91,0,0,0-.95-7.65,32.22,32.22,0,0,0,5.32-2.12,23.19,23.19,0,0,1,3.21,9.77Zm1.8-13.3a28.64,28.64,0,0,1-3.85,1.47,29.46,29.46,0,0,0-3.23-6.91A23.43,23.43,0,0,1,475.44,148.19Zm-27.93-5.44a29.46,29.46,0,0,0-3.23,6.91,29.17,29.17,0,0,1-3.85-1.47A23.56,23.56,0,0,1,447.51,142.75Zm-7.07,36.37a28.14,28.14,0,0,1,3.85-1.46,29.35,29.35,0,0,0,3.22,6.9A23.39,23.39,0,0,1,440.44,179.12Zm27.92,5.44a29.24,29.24,0,0,0,3.22-6.91,28.13,28.13,0,0,1,3.85,1.47A23.39,23.39,0,0,1,468.36,184.56Z"/><path class="cls-4" d="M226,95.31a18.58,18.58,0,0,0-2.71.22,28.17,28.17,0,0,0-52.61,4.54,15.89,15.89,0,0,0-3.4-.38,15.65,15.65,0,0,0-15.65,15.65,8.39,8.39,0,0,0-8.39,8.38,8.27,8.27,0,0,0,.22,1.88h96.28A18.25,18.25,0,0,0,226,95.31Z"/><polygon class="cls-2" points="189.83 138.1 204.38 138.1 204.38 111.27 212.34 111.27 197.11 93.78 181.87 111.27 189.83 111.27 189.83 138.1"/><path class="cls-4" d="M298.55,237.77a21.79,21.79,0,1,0,21.78,21.78A21.78,21.78,0,0,0,298.55,237.77Zm0,37.2A15.42,15.42,0,1,1,314,259.55,15.42,15.42,0,0,1,298.55,275Z"/><path class="cls-4" d="M344.17,266.89V252.22h-7a39.18,39.18,0,0,0-1.5-5.63l6-3.49-7.33-12.71-6.06,3.5a40.06,40.06,0,0,0-4.12-4.12l3.5-6.06L315,216.38l-3.49,6a39.18,39.18,0,0,0-5.63-1.5v-7H291.21v7a37.94,37.94,0,0,0-5.63,1.51l-3.49-6.05-12.71,7.33,3.5,6.06a40.06,40.06,0,0,0-4.12,4.12l-6.06-3.5-7.33,12.71,6.05,3.49a39.2,39.2,0,0,0-1.51,5.63h-7v14.67h7a39.2,39.2,0,0,0,1.51,5.63L255.37,276l7.33,12.71,6.06-3.5a40.06,40.06,0,0,0,4.12,4.12l-3.5,6.06,12.71,7.33,3.49-6.05a39.2,39.2,0,0,0,5.63,1.51v7h14.67v-7a39.2,39.2,0,0,0,5.63-1.51l3.49,6.05,12.71-7.33-3.5-6.06a40.06,40.06,0,0,0,4.12-4.12l6.06,3.5L341.72,276l-6-3.49a39.18,39.18,0,0,0,1.5-5.63Zm-45.62,21.8a29.14,29.14,0,1,1,29.13-29.14A29.14,29.14,0,0,1,298.55,288.69Z"/><path class="cls-5" d="M580.45,93.27a29.09,29.09,0,0,0-5.31,20.57L573.8,118A38.89,38.89,0,0,0,561,101.84a29.12,29.12,0,0,0,12.42,17.42c-.83,2.57-1.8,5.51-2.91,8.8l-1.61,4.74c-.27.78-.56,1.57-.85,2.37A50.66,50.66,0,0,0,546.85,114a38.12,38.12,0,0,0,21,21.76c-.25.71-.51,1.42-.77,2.14-1.24,3.54-2.69,7.21-4.17,11.11q-1,2.63-2.15,5.34c-4.55-11.31-12.91-20.76-23-27.56A46.21,46.21,0,0,0,560.06,156c-1.74,4.2-3.59,8.53-5.56,12.93l-.17.11.11,0q-1,2.27-2.06,4.54l-.21.44a52.21,52.21,0,0,0-27.38-29.92c5.11,13.16,14.8,24,26.52,31.74-3.6,7.56-7.19,14.52-10.58,20.74l-.84,1.51c-2.79-16.73-13.22-32.63-27.4-41.5,3.85,16.78,13.77,31.53,26.69,42.76-1.32,2.36-2.6,4.62-3.85,6.68-.86,1.45-1.68,2.88-2.49,4.2L530.5,214l-.06.1c-4.58-15.48-16.18-29.32-30.55-36.19,5.44,15.42,16.31,28.32,29.65,37.62-5.44,8.59-8.93,13.46-8.82,14,.07.35,2.85-2.64,7.33-8.77,12.05,5.86,25.86,7.15,39,4.89a48.69,48.69,0,0,0-38.26-5.93c.71-1,1.45-2,2.23-3.17l.1.07c0-.05,0-.1,0-.15s.09-.12.13-.19l2.46-3.63c.84-1.29,1.71-2.69,2.61-4.11l1-1.56c16.16,5,33.63,4,49.64-1.27a62.39,62.39,0,0,0-48.31-.91c1.08-1.81,2.18-3.71,3.33-5.67q2.16-3.82,4.42-8.06c17,2,34.17-2.24,49.09-10.47a62.39,62.39,0,0,0-48,8.36q3.25-6.24,6.54-13.22c1-2.1,1.92-4.2,2.83-6.28,13.78,2.14,27.94-.61,40.49-6.62a52.42,52.42,0,0,0-39.36,4c2.12-4.92,4.08-9.75,5.87-14.39a46.18,46.18,0,0,0,32.44-16.27c-11.57,1.16-22.38,6.17-31.37,13.44,1.37-3.75,2.69-7.31,3.8-10.72.61-1.82,1.21-3.57,1.76-5.27.22-.71.43-1.41.65-2.1a23.81,23.81,0,0,0,21.11-8.81,30.41,30.41,0,0,0-20.58,7.08l.33-1.07c1-3.27,1.83-6.22,2.53-8.8a.05.05,0,0,1,0,0,.14.14,0,0,1,0-.07c.11-.4.21-.8.32-1.19a29,29,0,0,0,17.07-12.61,37.54,37.54,0,0,0-16.56,10.65c.23-.87.43-1.66.61-2.41A38.68,38.68,0,0,0,580.45,93.27Z"/><path class="cls-6" d="M295.51,151l6.14,11.89-1.38-10.17c4.6,1.8,8.17,3.31,13.17,5.69l6.34,18.48L319,161a102.13,102.13,0,0,1,13.7,7.8c1.33,8.75,3.23,18,3.23,18l2.91-13.74a68.24,68.24,0,0,1,15.05,14.78c.61.87,0,0,.61.87l1.2,12.51,2.62-6.7c14.47,23.65,8.24,34.65,8.24,34.65a11.65,11.65,0,0,1-1.51.36,25.5,25.5,0,0,1-3.2.39c-5.33.4-15.22-.1-29.82-5.6l8.29-4.45-12.57,1.48c-1.08-.61-2.19-1.25-3.3-1.94-3.61-2.2-3.4-1.55-6.66-4.72l11.62-6.08L313,210.17c-1.89-1.9-3.72-3.93-5.48-6.06l12.26-3.2L303.71,199a88.3,88.3,0,0,1-7-10.08l12.8-3.19-16.19-2.83a91.8,91.8,0,0,1-6.6-12.63L298,168.94l-13.85-3.37c-4.55-10.3-8.37-21-8.37-21A189.65,189.65,0,0,1,295.51,151Z"/><path class="cls-5" d="M323.52,93.73a28.14,28.14,0,0,1,8,18.89c.55,1.11,1.17,2.37,1.88,3.79a37.66,37.66,0,0,1,9.93-17.28A28.09,28.09,0,0,1,334,117.55q1.74,3.51,4,8l2.22,4.3c.38.7.76,1.42,1.16,2.14a48.86,48.86,0,0,1,17.19-23.27,36.89,36.89,0,0,1-16.91,23.79l1,1.93c1.69,3.2,3.61,6.5,5.58,10,.91,1.57,1.85,3.17,2.81,4.78,2.74-11.45,9.37-21.67,18-29.62A44.65,44.65,0,0,1,352,150.69c2.26,3.77,4.65,7.64,7.16,11.56l.18.07-.11,0c.86,1.35,1.74,2.69,2.62,4l.27.4A50.45,50.45,0,0,1,384,134.29c-3,13.3-10.7,25.06-20.79,34.12,4.52,6.7,8.95,12.84,13.08,18.3l1,1.31c.27-16.37,8-33.05,20.23-43.56-1.28,16.58-8.64,32.09-19.37,44.67,1.6,2.06,3.14,4.05,4.63,5.83,1,1.26,2,2.51,3,3.66s1.89,2.22,2.78,3.25l.07.09c2.16-15.45,11.26-30.33,24-39-3,15.51-11.52,29.39-22.93,40.18,6.43,7.43,10.46,11.59,10.43,12.12,0,.35-3.1-2.1-8.25-7.32-10.68,7.32-23.69,10.53-36.57,10.26A47,47,0,0,1,391,207.1c-.82-.84-1.68-1.74-2.59-2.71l-.08.08a.77.77,0,0,1,0-.15,1.14,1.14,0,0,1-.15-.16l-2.87-3.11c-1-1.11-2-2.33-3.08-3.56-.39-.43-.78-.89-1.16-1.35-14.74,7-31.57,8.61-47.61,5.9a60.3,60.3,0,0,1,46-7.79c-1.29-1.57-2.62-3.23-4-4.93q-2.62-3.34-5.38-7.07c-15.94,4.33-33,2.75-48.39-3a60.22,60.22,0,0,1,47,1.11c-2.66-3.66-5.39-7.56-8.13-11.69-1.23-1.87-2.44-3.74-3.61-5.6-12.85,4-26.78,3.43-39.62-.52a50.64,50.64,0,0,1,38.17-1.8c-2.73-4.4-5.29-8.73-7.67-12.91A44.58,44.58,0,0,1,314.56,137c11.22-.55,22.26,2.69,31.89,8.34-1.84-3.38-3.61-6.59-5.16-9.69-.85-1.65-1.67-3.24-2.43-4.78-.32-.65-.62-1.29-.93-1.91a23,23,0,0,1-21.43-5.4,29.44,29.44,0,0,1,20.68,3.82l-.47-1c-1.42-3-2.64-5.69-3.68-8l0,0s0,0,0-.06c-.16-.37-.32-.74-.48-1.09a28,28,0,0,1-18.11-9.6,36.24,36.24,0,0,1,17.34,7.8c-.34-.8-.64-1.53-.92-2.22A37.37,37.37,0,0,1,323.52,93.73Z"/><path class="cls-6" d="M698.09,290.29l-13.22,8.9,11.84-3c-1.49,5.69-2.79,10.12-4.91,16.37l-21,10,18.63-3.15c-2.57,7-3.87,10.69-7.33,17.27C672,339.46,661.32,343,661.32,343L678,344.53c-4.43,7.65-9.52,14.54-15.4,19.83-1,.85,0,.06-1,.85L647,368.35l8.28,2.18c-26,20.37-39.83,14.52-39.83,14.52a14.48,14.48,0,0,1-.64-1.73,32.25,32.25,0,0,1-.9-3.73c-1.21-6.26-2-18,2.51-36l6.4,9.19-3.49-14.66c.58-1.36,1.18-2.76,1.85-4.17,2.1-4.57,1.36-4.23,4.66-8.53l8.79,12.9-4.12-19.16c2-2.5,4.14-4.94,6.41-7.31l5.47,14.05,0-19.24a103.88,103.88,0,0,1,11-9.66l5.54,14.68L660,292.11a109.85,109.85,0,0,1,14-9.55l3.14,13.11,2.09-16.84C690.81,272,703,266,703,266A225.56,225.56,0,0,1,698.09,290.29Z"/><path class="cls-5" d="M269.34,372c3,2.15,6.73,2.92,10.36,3.48a133.68,133.68,0,0,0,54.73-2.91c1-.25,1.92-.52,2.87-.8l.23-1,.05-.15,1-4.14,7.94-31.6a101.75,101.75,0,0,0-2.41-55.51c-2.61-7.77-6.46-15.6-13.25-20.17s-17.14-4.69-22.33,1.65c-3.13,3.81-3.83,9-4.12,13.92a123,123,0,0,0,6.24,46.47,57.32,57.32,0,0,0-27.54-27c-8-3.67-18.94-4.77-24.45,2.13-2.93,3.66-3.49,8.81-2.39,13.36s3.67,8.62,6.5,12.36a85.69,85.69,0,0,0,34.87,27,60.15,60.15,0,0,0-25.51,6.7c-2.89,1.5-5.87,3.51-6.82,6.62C264.3,366,266.35,369.85,269.34,372Z"/><path class="cls-6" d="M270.22,316.81l12.85-.59L303,336.14l-10.45,1.15c-2.12.24-1.94,3.54.17,3.3L306,339.12,332.9,366l-9-.75a.69.69,0,0,1-.11-.17l-9.95-9.89c-1.49-1.5-3.67,1-2.16,2.48l7.17,7.16q-11-.93-22-1.83c-1.62-2.16-3.25-4.29-4.88-6.44-1.29-1.68-4,.14-2.74,1.83,1.06,1.42,2.14,2.82,3.2,4.24-1.34-.13-2.7-.23-4-.34-2.09-.17-2.79,3.05-.68,3.22L305.45,367c-1.52,1.33-3,2.66-4.56,4a1.66,1.66,0,0,0-1.65,1.68c0,.2,0,.38,0,.58,0,1.15,1.62,2.12,2.57,1.28l8.19-7.12,24,2,.4,3.19c1-.25,1.92-.52,2.87-.8l.23-1a1.64,1.64,0,0,0,0-.22l.07.07,1-4.14a1.14,1.14,0,0,0-.32-.07l-.32,0-1.15-1.15-3.15-25.1a1.69,1.69,0,0,0,.61-.56c2.09-3.19,4.17-6.39,6.25-9.57,1.17-1.78-1.79-3.25-2.94-1.49-1.51,2.31-3,4.62-4.52,6.92q-1.72-13.62-3.43-27.25s0,0,.05-.07q5.06-6.64,10.08-13.31c1.28-1.68-1.19-3.87-2.48-2.17l-8.24,10.88q-1.46-11.65-2.94-23.32c-.27-2.11-3.56-1.93-3.3.17l.69,5.45-9.08-4.12c-1.95-.87-3.43,2.08-1.49,3q5.54,2.49,11.05,5l3.49,27.73c-3.22-2.2-6.46-4.39-9.69-6.58-1.74-1.18-3.94,1.29-2.18,2.48l11.82,8a1.48,1.48,0,0,0,.59.26q2.5,19.95,5,39.9L321,349.39a1.22,1.22,0,0,0,.07-.45c-.27-5.5-.52-11-.79-16.5a1.65,1.65,0,0,0-3.29.18l.64,13.41-21.83-21.79a.79.79,0,0,0,0-.41q-.87-6-1.75-12c-.31-2.09-3.61-1.91-3.3.18q.63,4.2,1.24,8.4-5.5-5.49-11-11c-1.51-1.49-3.68,1-2.18,2.49l1.13,1.14-9.85.46A1.65,1.65,0,0,0,270.22,316.81Z"/><rect class="cls-7" x="332.76" y="179.14" width="308.76" height="206.13" rx="13.34"/><rect class="cls-4" x="348.64" y="195.04" width="277" height="174.34"/><rect class="cls-8" x="348.64" y="195.04" width="277" height="24.33"/><path class="cls-7" d="M583.72,385.27h-285v4.65a195.83,195.83,0,0,0,63.76,10.71H611.75a195.87,195.87,0,0,0,63.76-10.71v-4.65Z"/><polygon class="cls-9" points="583.73 385.27 390.55 385.27 298.77 385.27 298.77 389.92 390.55 389.92 583.73 389.92 675.51 389.92 675.51 385.27 583.73 385.27"/><path class="cls-2" d="M578.19,207.2a4.43,4.43,0,1,1-4.43-4.42A4.43,4.43,0,0,1,578.19,207.2Z"/><path class="cls-2" d="M596,207.2a4.43,4.43,0,1,1-4.43-4.42A4.43,4.43,0,0,1,596,207.2Z"/><path class="cls-2" d="M613.85,207.2a4.43,4.43,0,1,1-4.43-4.42A4.43,4.43,0,0,1,613.85,207.2Z"/><g class="cls-10"><rect class="cls-11" x="360.16" y="298.03" width="142.46" height="38.51" rx="3.19"/></g><rect class="cls-2" x="363.81" y="294.38" width="142.46" height="38.51" rx="3.19"/><rect class="cls-7" x="371.48" y="301.78" width="43.43" height="4.63"/><rect class="cls-7" x="371.48" y="311.32" width="57.65" height="4.63"/><rect class="cls-7" x="371.48" y="320.86" width="86.95" height="4.63"/><polygon class="cls-12" points="440.17 299.47 441.67 302.51 445.03 303 442.6 305.37 443.17 308.72 440.17 307.14 437.16 308.72 437.74 305.37 435.31 303 438.66 302.51 440.17 299.47"/><polygon class="cls-12" points="453.56 299.47 455.06 302.51 458.42 303 455.99 305.37 456.56 308.72 453.56 307.14 450.56 308.72 451.13 305.37 448.7 303 452.06 302.51 453.56 299.47"/><polygon class="cls-12" points="466.96 299.47 468.46 302.51 471.82 303 469.39 305.37 469.96 308.72 466.96 307.14 463.95 308.72 464.52 305.37 462.1 303 465.45 302.51 466.96 299.47"/><polygon class="cls-12" points="480.35 299.47 481.85 302.51 485.21 303 482.78 305.37 483.35 308.72 480.35 307.14 477.35 308.72 477.92 305.37 475.49 303 478.85 302.51 480.35 299.47"/><polygon class="cls-13" points="493.75 299.47 495.25 302.51 498.61 303 496.18 305.37 496.75 308.72 493.75 307.14 490.74 308.72 491.31 305.37 488.88 303 492.24 302.51 493.75 299.47"/><path class="cls-14" d="M570.4,273.51V390.14a4.86,4.86,0,0,1-4.87,4.87H422.36a4.86,4.86,0,0,1-4.86-4.87V273.51a4.86,4.86,0,0,1,4.86-4.87H565.53A4.86,4.86,0,0,1,570.4,273.51Z"/><path class="cls-13" d="M575.63,268.27V384.91a4.85,4.85,0,0,1-4.86,4.86H427.59a4.86,4.86,0,0,1-4.86-4.86V268.27a4.86,4.86,0,0,1,4.86-4.86H570.77A4.85,4.85,0,0,1,575.63,268.27Z"/><path class="cls-15" d="M575.63,268.27v9.3H422.73v-9.3a4.86,4.86,0,0,1,4.86-4.86H570.77A4.85,4.85,0,0,1,575.63,268.27Z"/><circle class="cls-2" cx="538.97" cy="270.22" r="2.89"/><circle class="cls-2" cx="551.06" cy="270.49" r="2.89"/><path class="cls-2" d="M566,270.76a2.89,2.89,0,1,1-2.88-2.89A2.89,2.89,0,0,1,566,270.76Z"/><circle class="cls-2" cx="453.32" cy="306.68" r="21"/><path class="cls-4" d="M453.32,305.09a12,12,0,0,0-12,12h24A12,12,0,0,0,453.32,305.09Z"/><path class="cls-4" d="M459.57,299.9a6.25,6.25,0,1,1-6.25-6.26A6.25,6.25,0,0,1,459.57,299.9Z"/><rect class="cls-8" x="490.21" y="285.68" width="75.84" height="4.32"/><rect class="cls-8" x="509.11" y="298.24" width="56.93" height="4.32"/><rect class="cls-8" x="534.77" y="310.8" width="31.27" height="4.32"/><rect class="cls-8" x="490.21" y="323.36" width="75.84" height="4.32"/><circle class="cls-2" cx="435.04" cy="342.41" r="2.72"/><rect class="cls-2" x="445.53" y="339.68" width="107" height="5.45"/><path class="cls-2" d="M437.76,354a2.72,2.72,0,1,1-2.72-2.73A2.72,2.72,0,0,1,437.76,354Z"/><rect class="cls-2" x="445.53" y="351.23" width="107" height="5.45"/><path class="cls-2" d="M437.76,365.51a2.72,2.72,0,1,1-2.72-2.73A2.72,2.72,0,0,1,437.76,365.51Z"/><rect class="cls-2" x="445.53" y="362.78" width="107" height="5.45"/><path class="cls-2" d="M437.76,377.06a2.72,2.72,0,1,1-2.72-2.73A2.72,2.72,0,0,1,437.76,377.06Z"/><rect class="cls-2" x="445.53" y="374.33" width="107" height="5.45"/><path class="cls-16" d="M625.19,242.3V349.78a4.85,4.85,0,0,1-4.87,4.86H516.4a4.86,4.86,0,0,1-4.86-4.86V242.3a4.86,4.86,0,0,1,4.86-4.86H620.32A4.85,4.85,0,0,1,625.19,242.3Z"/><path class="cls-2" d="M629.26,237.51V345a4.85,4.85,0,0,1-4.86,4.86H520.47a4.86,4.86,0,0,1-4.86-4.86V237.51a4.86,4.86,0,0,1,4.86-4.86H624.4A4.85,4.85,0,0,1,629.26,237.51Z"/><rect class="cls-13" x="523.81" y="240.69" width="78.03" height="10.13"/><path class="cls-13" d="M621.06,249.39l-2.31-2.32a4,4,0,1,0-1.13,1.13l2.31,2.32Zm-7.33-2.82a2.39,2.39,0,1,1,3.38,0A2.41,2.41,0,0,1,613.73,246.57Z"/><rect class="cls-7" x="523.81" y="264.28" width="51.78" height="5.01"/><rect class="cls-7" x="523.81" y="274.74" width="75.2" height="5.01"/><rect class="cls-15" x="523.81" y="287.38" width="97.26" height="35.9" rx="3.86"/><rect class="cls-2" x="529.66" y="293.4" width="57.42" height="5.28"/><rect class="cls-2" x="529.66" y="311.99" width="32.63" height="5.28"/><rect class="cls-2" x="529.66" y="302.7" width="77.4" height="5.28"/><path class="cls-7" d="M564,335.21a2.84,2.84,0,1,1-2.84-2.83A2.84,2.84,0,0,1,564,335.21Z"/><circle class="cls-7" cx="572.43" cy="335.21" r="2.83"/><circle class="cls-7" cx="583.69" cy="335.21" r="2.83"/><rect class="cls-17" x="366.81" y="205.41" width="100.89" height="68.26" rx="3.15"/><rect class="cls-2" x="369.6" y="201.86" width="100.89" height="68.26" rx="3.15"/><rect class="cls-13" x="375.68" y="255.25" width="88.74" height="8.29"/><rect class="cls-18" x="375.68" y="255.25" width="36.43" height="8.29"/><rect class="cls-13" x="375.68" y="240.44" width="88.74" height="8.29"/><rect class="cls-19" x="375.68" y="240.44" width="17.78" height="8.29"/><rect class="cls-13" x="375.68" y="225.63" width="88.74" height="8.29"/><rect class="cls-5" x="375.68" y="225.63" width="74.58" height="8.29"/><rect class="cls-13" x="375.68" y="210.82" width="88.74" height="8.29"/><rect class="cls-5" x="375.68" y="210.82" width="52.88" height="8.29"/><path class="cls-2" d="M447.86,80.5a57,57,0,0,0-80.58,0,3.25,3.25,0,0,0,4.6,4.6,50.53,50.53,0,0,1,71.38,0,3.25,3.25,0,0,0,4.6-4.6Z"/><path class="cls-2" d="M377.51,90.73a3.26,3.26,0,0,0,4.61,4.6,36.05,36.05,0,0,1,50.91,0,3.25,3.25,0,0,0,4.6-4.6A42.57,42.57,0,0,0,377.51,90.73Z"/><path class="cls-2" d="M387.81,101a3.26,3.26,0,0,0,4.6,4.61,21.46,21.46,0,0,1,30.32,0,3.26,3.26,0,0,0,4.6-4.61A28,28,0,0,0,387.81,101Z"/><path class="cls-2" d="M402.54,108.35a9,9,0,1,0,12.74,0A9,9,0,0,0,402.54,108.35Z"/><path class="cls-20" d="M138.09,141.22l-1.25-3.71-1.26,3.71a20.09,20.09,0,0,1-9.39,11.2h0a20.07,20.07,0,0,1,9.39,11.19l1.26,3.71,1.25-3.71a20.07,20.07,0,0,1,9.39-11.19h0A20.09,20.09,0,0,1,138.09,141.22Z"/><path class="cls-20" d="M153.8,165.3l-.87-2.57-.87,2.57a13.94,13.94,0,0,1-6.52,7.77h0a13.94,13.94,0,0,1,6.52,7.77l.87,2.57.87-2.57a13.92,13.92,0,0,1,6.51-7.77h0A13.92,13.92,0,0,1,153.8,165.3Z"/><path class="cls-18" d="M154.27,287.8c2.23-13.07,6.63-31.16,8.33-38.1l10.65-1.12L190.06,251l16.74,5.23c27.15,45.4-.75,65.77-.75,65.77S205,363.11,204,378.69l-66.39-20.64C145.07,330.92,151.3,305.18,154.27,287.8Z"/><path class="cls-18" d="M232.42,309.84,206.05,322l-4.55-5.82v-61.6s15.24,3.11,16.13,5.44S232.42,309.84,232.42,309.84Z"/><path class="cls-18" d="M162.6,249.7s-24.29,6.94-26,9.85-14.65,48.77-14.65,48.77l32.15,1.52L169.32,270Z"/><path class="cls-20" d="M211,296.93c.47-8.27-2.24-16.83-4.58-24.66-.07-.23.29-.4.4-.17,3.1,6.95,6.27,14,6.57,21.72.32,8.51-4.07,15.12-6,23.16-.2.83-1.64.67-1.53-.21C206.75,309.87,210.65,304,211,296.93Z"/><path class="cls-2" d="M190.06,251s9.78,1.81,11.44,3.58,2.27,11.8,2.27,11.8l-17.24-4.16-16.29,4.16s-4.15-14.14-3-17.16l6-.64S190.82,262.9,190.06,251Z"/><path class="cls-2" d="M185.82,269.49a1.7,1.7,0,1,0,1.7-1.69A1.7,1.7,0,0,0,185.82,269.49Z"/><path class="cls-2" d="M186.05,277.75a1.7,1.7,0,1,0,1.69-1.69A1.7,1.7,0,0,0,186.05,277.75Z"/><path class="cls-2" d="M185,287.45a1.69,1.69,0,1,0,1.69-1.69A1.69,1.69,0,0,0,185,287.45Z"/><path class="cls-7" d="M226.79,252c-32.06,2.13-71.1-13.18-71.1-13.18a35,35,0,0,1,.14-16.72s0,0,0,0c2.91-10.51,10.83-14.37,10.83-14.37a52.76,52.76,0,0,1,.5-7.54c.88-6,3.26-12.41,8.47-16a30.23,30.23,0,0,1,4.82-2.68,34,34,0,0,1,10.17-2.73c10.56-1.13,21.61,2.88,27.47,12.07A43.64,43.64,0,0,1,224,207.49c.34,2.14-.27,6.49.69,8.37,2.25,4.43,3.09,10.71,3.27,16.81A122,122,0,0,1,226.79,252Z"/><path class="cls-21" d="M173.25,248.58s9.82,8.94,12.22,8.69,6.66-3.81,6.66-3.81c-.18-.41-1.41-1.18-2.07-2.46a4.38,4.38,0,0,1-.26-2.92,75.27,75.27,0,0,1,4.24-9l-12.07-8s-1.52,3.65-3.32,7.46S174.24,248.18,173.25,248.58Z"/><path class="cls-22" d="M178.66,238.6c2.94,3.65,6.59,8,7.92,8.89a4.41,4.41,0,0,0,3.21.59,75.86,75.86,0,0,1,4.25-9l-12.07-8S180.44,234.8,178.66,238.6Z"/><path class="cls-23" d="M184.2,192.15c9.4-6.45,22.22-5.82,30.36,2.16,1.87,1.83,3.26,3.72,3.64,5.51,1.53,7.16,0,31.66-7.69,41.63s-14.94,6.49-17.45,5-13.89-10.07-15.77-15-2.69-28,.16-33.21C178.4,196.5,181.07,194.3,184.2,192.15Z"/><path class="cls-21" d="M183.77,190.25c9.4-6.45,22.21-5.82,30.35,2.15,1.87,1.84,3.26,3.73,3.64,5.52,1.53,7.15,0,31.65-7.68,41.63s-14.94,6.48-17.45,5-13.89-10.08-15.77-15-2.69-28,.15-33.22C178,194.59,180.63,192.4,183.77,190.25Z"/><path class="cls-22" d="M200.67,225.79a4.07,4.07,0,0,0-1.72-.57,5.82,5.82,0,0,0,3,3.25.83.83,0,0,0,.34.1,1,1,0,0,0,.4-.12,6.73,6.73,0,0,0,2.11-1.67,1.32,1.32,0,0,0,.29-.46c.17-.58-.24-.48-.6-.36a5.58,5.58,0,0,1-1.28.25A5.48,5.48,0,0,1,200.67,225.79Z"/><path class="cls-24" d="M202.09,228.14c.38-.3.8-.55,1.18-.84a8.37,8.37,0,0,0,1.32-1.2c-1.83-1.43-1.69-3.42-1.47-5.68a6.66,6.66,0,0,1,1-2.87,6.73,6.73,0,0,1,1-1.24,6.31,6.31,0,0,1,.63-.53,2.38,2.38,0,0,1,.68-.33c-.12.13-.21.28-.33.42a10.89,10.89,0,0,0-.87,1,8.21,8.21,0,0,0-.69,1.19,8.11,8.11,0,0,0-.73,2.64,6.93,6.93,0,0,0,.27,2.68,5.23,5.23,0,0,0,1.77,2.58s-1.39,1.44-1.53,1.56a6.74,6.74,0,0,1-1.13.79,2.38,2.38,0,0,1-1.32.43.75.75,0,0,1-.41-.14l.24-.17.09-.09Z"/><path class="cls-24" d="M189.77,228.64a18.73,18.73,0,0,0,14.66,4.91,12.73,12.73,0,0,1-8.49.51C193.12,233.15,191.41,231.11,189.77,228.64Z"/><path class="cls-24" d="M192.93,234.75a7.17,7.17,0,0,0,6.25,2,4,4,0,0,1-3.48.79A4.87,4.87,0,0,1,192.93,234.75Z"/><path class="cls-21" d="M179,219.54c-.6-.5-2.89-5.87-6-3.74s-4.89,6.49-3.26,9.6c1.5,2.84,3.76,6.07,7.51,6.06Z"/><path class="cls-22" d="M172.25,219.27a3.41,3.41,0,0,0-.31,1.87c.18,2.72,2.09,5.23,3.93,7.58a6.86,6.86,0,0,1,.16-4.16c.16-.46.37-.9.49-1.38C177,221.29,174,215.91,172.25,219.27Z"/><path class="cls-25" d="M176.84,229.72l-.11-.11c-.07-.07-.19-.18-.31-.32a5.43,5.43,0,0,1-.87-1.35,5.15,5.15,0,0,1-.43-2.24,4.54,4.54,0,0,1,.93-2.59,2.34,2.34,0,0,1,.25-.3l.06-.07s0,0,0,0h0v0l0-.08,0-.16-.09-.32a12.21,12.21,0,0,0-.44-1.21c-.16-.39-.33-.74-.51-1.08a6.38,6.38,0,0,0-.55-.88,1.59,1.59,0,0,0-.65-.53,1.17,1.17,0,0,0-.66,0,.66.66,0,0,0-.34.2.3.3,0,0,0-.07.12.32.32,0,0,1,0-.13.54.54,0,0,1,.32-.29,1.24,1.24,0,0,1,.77-.07,2,2,0,0,1,.91.54,5.83,5.83,0,0,1,.72.89,9.39,9.39,0,0,1,.66,1.08A9.75,9.75,0,0,1,177,222c0,.11.07.22.11.34l0,.17.06.24,0,.17a.69.69,0,0,1-.11.13l-.17.19a1.83,1.83,0,0,0-.21.26,4.73,4.73,0,0,0-.94,2.26,5.33,5.33,0,0,0,.14,2.07,6,6,0,0,0,.57,1.38,4,4,0,0,0,.24.35Z"/><path class="cls-7" d="M217.27,211.94s-2.7-3.45-4.86-3.78-3.27,1.43-2.54,2S217.27,211.94,217.27,211.94Z"/><path class="cls-7" d="M186.74,207.68s5.93-3,9.35-2.83,4.15,2.42,2.73,2.87S186.74,207.68,186.74,207.68Z"/><path class="cls-22" d="M191.51,224.73c-.38,1-2.76.93-5.31-.09s-4.31-2.63-3.92-3.59,2.76-.93,5.31.09S191.9,223.77,191.51,224.73Z"/><path class="cls-22" d="M218.53,226.14c.15.77-1.61,1.77-3.94,2.22s-4.34.19-4.49-.58,1.61-1.77,3.94-2.22S218.38,225.37,218.53,226.14Z"/><path class="cls-7" d="M188.08,211.1a4.59,4.59,0,0,0,2.14,2.1,1.94,1.94,0,0,1,1.5-.65c1.37.1,2.36,2,2.21,4.17s-1.39,3.93-2.76,3.84-2.37-2-2.22-4.18a6.33,6.33,0,0,1,.42-1.87C188.39,213.52,188.08,211.1,188.08,211.1Z"/><path class="cls-2" d="M191.37,216.83a3.84,3.84,0,0,1-4.59-2.15,3.87,3.87,0,0,1,4.59,2.15Z"/><path class="cls-7" d="M216.5,215.73a4,4,0,0,1-2.28,1.24,1.64,1.64,0,0,0-1.09-.89c-1.17-.25-2.43,1.07-2.83,2.95s.24,3.59,1.4,3.84,2.44-1.08,2.83-3a5.26,5.26,0,0,0,.09-1.66A6.46,6.46,0,0,0,216.5,215.73Z"/><path class="cls-2" d="M212.41,219.72a3.87,3.87,0,0,0,2.3.46,3.83,3.83,0,0,0,2-1.17,3.35,3.35,0,0,0-4.32.71Z"/><path class="cls-7" d="M221.52,208.06A29.31,29.31,0,0,1,201,197.29a16.8,16.8,0,0,0,3.74,7.55,24.38,24.38,0,0,1-15.3-7.49,19,19,0,0,1-8.47,11.5c-1,3.32-1.65,6.86-2.66,10.17a8.76,8.76,0,0,0-5.91-3.5c-2.74-8-1.55-17.43,3.64-24.14a25.59,25.59,0,0,1,42.79,3.41A24,24,0,0,1,221.52,208.06Z"/><path class="cls-26" d="M220.56,216.76a25.54,25.54,0,0,0-2.79-15.39,49.36,49.36,0,0,1-21.85-13.89q-.66,4.41-1.29,8.82l-8.91-5.94c-1.22,6.14-6.41,10.26-9.06,15.92-.74,1.58-1.93,3.7-2.67,5.28a31.39,31.39,0,0,0-18.16,10.5c2.91-10.51,10.83-14.37,10.83-14.37a54.31,54.31,0,0,1,.28-5.71c.06-.61.14-1.22.22-1.83.88-6,3.26-12.41,8.47-16a30.23,30.23,0,0,1,4.82-2.68,34,34,0,0,1,10.17-2.73c10.56-1.13,21.61,2.88,27.47,12.07a34.39,34.39,0,0,1,2.76,5.32A48.66,48.66,0,0,1,224,207.49c.34,2.14-.27,6.49.69,8.37,2.25,4.43,3.09,10.71,3.27,16.81A94.64,94.64,0,0,0,220.56,216.76Z"/><path class="cls-27" d="M220.85,196.17a113.8,113.8,0,0,1-28.13-13.85q-.3,3.26-.59,6.51-4.14-2.39-8.26-4.79c-1.38,4.8-5.34,8.36-9.29,11.42a63,63,0,0,0-7.64,6.52c.06-.61.14-1.22.22-1.83.88-6,3.26-12.41,8.47-16a30.23,30.23,0,0,1,4.82-2.68,34,34,0,0,1,10.17-2.73c10.56-1.13,21.61,2.88,27.47,12.07A34.39,34.39,0,0,1,220.85,196.17Z"/><path class="cls-22" d="M223.13,361.87s69.1-7.4,76.06-5.66,73.88,17.18,73.88,17.18l-5,24.09-69.24-9.92-85.74,7.58Z"/><path class="cls-21" d="M327.28,402.63l-14.94,14.42-.31.32-2.44,2.45-63.33-44.1s-39.77,43.42-86.39,40.61c-18.32-1.1-22.31-38.65-22.31-38.65L142,378l38.13,2.27s55.54-41.73,69.19-42S327.28,402.63,327.28,402.63Z"/><path class="cls-22" d="M312,417.37l-2.44,2.45-63.33-44.1s-39.77,43.42-86.39,40.61c-18.32-1.1-22.31-38.65-22.31-38.65L142,378c1.46,11.16,5.91,34.3,17.45,35,15.2.93,84.75-46.75,84.75-46.75Z"/><path class="cls-9" d="M131.36,376.72s3.06,35.36,27.5,43.11,73.57-29.14,73.57-29.14l-4.6-7.09L209.94,356l-31.43,14.82-40.95-12.73-4.45,13.38Z"/><polygon class="cls-7" points="178.51 370.78 158.13 379.02 167.44 367.34 178.51 370.78"/><path class="cls-7" d="M131.36,376.72s3.06,35.36,27.5,43.11,73.57-29.14,73.57-29.14l-4.6-7.09c-13.67,8.17-53.79,31.48-62.89,28.48s-26.33-31.28-31.83-40.65Z"/><path class="cls-8" d="M425.76,352.66a3.52,3.52,0,0,0-3.15,1.39c-2.42,3.43-10.33,16.21-14,19.37-2.88,2.45-8.41,4-10.73,4.61L394.14,404c6.38,2.78,19.06,6.25,21.72,7Z"/><polygon class="cls-2" points="431.62 353.64 421.72 411.89 415.86 410.92 425.76 352.66 431.62 353.64"/><path class="cls-2" d="M409.39,378.6l.18.15c.47.37,1.22.69,1.65.06a1.91,1.91,0,0,0,.23-1.11,12.35,12.35,0,0,0-.84-3.83,9.19,9.19,0,0,0-2.07-3.74c-1.09-1-2.43-.09-2.38,1.34A10.5,10.5,0,0,0,409.39,378.6Z"/><path class="cls-2" d="M413.27,374.75l.19.15c.46.37,1.22.68,1.64.06a1.85,1.85,0,0,0,.23-1.11,12,12,0,0,0-.83-3.83,9.19,9.19,0,0,0-2.07-3.74c-1.09-1-2.44-.09-2.39,1.34A10.56,10.56,0,0,0,413.27,374.75Z"/><path class="cls-2" d="M416.26,369.7l.18.15c.47.37,1.23.69,1.65.06a1.83,1.83,0,0,0,.23-1.11,12.06,12.06,0,0,0-.83-3.83,9.31,9.31,0,0,0-2.07-3.74c-1.1-1-2.44-.09-2.39,1.34A10.5,10.5,0,0,0,416.26,369.7Z"/><polygon class="cls-2" points="394.51 401.33 363.45 399.04 370.43 371.09 397.85 378.03 394.51 401.33"/><path class="cls-8" d="M376,406.79a3.49,3.49,0,0,0-3.4-.5c-3.87,1.63-17.36,8.25-22.18,9-3.74.55-9.26-1.05-11.54-1.79l-16.91,20c3.94,5.75,12.83,15.42,14.7,17.44Z"/><polygon class="cls-2" points="380.42 410.73 341.1 454.83 336.64 450.89 375.97 406.79 380.42 410.73"/><path class="cls-2" d="M348.32,420.07l.08.23c.2.56.67,1.23,1.36.92a1.84,1.84,0,0,0,.79-.82,12.26,12.26,0,0,0,1.33-3.69,9.31,9.31,0,0,0,.23-4.26c-.38-1.45-2-1.38-2.73-.13A10.48,10.48,0,0,0,348.32,420.07Z"/><path class="cls-2" d="M353.66,418.87l.08.23c.2.56.67,1.23,1.36.92a1.82,1.82,0,0,0,.78-.82,11.83,11.83,0,0,0,1.33-3.69,9.18,9.18,0,0,0,.24-4.26c-.39-1.45-2-1.38-2.74-.13A10.52,10.52,0,0,0,353.66,418.87Z"/><path class="cls-2" d="M358.87,416.18l.08.23c.2.56.67,1.23,1.36.92a1.84,1.84,0,0,0,.79-.82,12.35,12.35,0,0,0,1.33-3.69,9.31,9.31,0,0,0,.23-4.26c-.38-1.45-2-1.38-2.73-.13A10.48,10.48,0,0,0,358.87,416.18Z"/><polygon class="cls-2" points="323.65 431.43 298.55 412.99 319.31 393.02 338.85 413.46 323.65 431.43"/><polygon class="cls-7" points="277.23 361.36 187.07 361.36 202.13 299.61 292.29 299.61 277.23 361.36"/><path class="cls-2" d="M251.6,331.17a5.72,5.72,0,0,1-5.72-5.72,5.63,5.63,0,0,1,1.25-3.52,8.65,8.65,0,0,0-2.39-.37,8.92,8.92,0,1,0,8.89,9.22A5.68,5.68,0,0,1,251.6,331.17Z"/><rect class="cls-7" x="171.43" y="352.66" width="105.8" height="8.7"/><path class="cls-21" d="M191.71,342.32l-.82,3.38-1.69,7s-61.18,3.73-66.81-5.86c-3-5.13,2.53-38.36,2.53-38.36l18.74.9,6.2.3-1.52,23.72C150.5,332.63,191.71,342.32,191.71,342.32Z"/><path class="cls-22" d="M191.71,342.32l-.82,3.38-48.45-8.42,1.22-27.94,6.2.3-1.52,23.72C150.5,332.63,191.71,342.32,191.71,342.32Z"/><path class="cls-21" d="M272.91,347.19c1.16-1.39,10.16.08,7.41-.36s-11.81-6.3-11-8.19,16.15.38,16.15.38-11.51-4.48-9.3-7.81c.72-1.09,2.93-1.37,5.57-1.27-1.95-2.21-3.12-4.36-1.27-5.13,4.36-1.8,14,7.22,14,7.22,10,11.58-11.83,22.2-11.83,22.2S271.75,348.57,272.91,347.19Z"/><rect class="cls-15" x="251.41" y="139.14" width="92.1" height="66.86" rx="6.22" transform="translate(594.91 345.14) rotate(180)"/><polygon class="cls-15" points="251.41 190.95 242.65 220.22 274.81 205.71 251.41 190.95"/><path class="cls-2" d="M297.46,159.77a12.8,12.8,0,1,0,12.79,12.8A12.8,12.8,0,0,0,297.46,159.77Zm0,21.85a9.05,9.05,0,1,1,9.05-9.05A9.06,9.06,0,0,1,297.46,181.62Z"/><path class="cls-2" d="M324.25,176.88v-8.62h-4.11a22.55,22.55,0,0,0-.88-3.3l3.55-2.05-4.31-7.47L315,157.5a24,24,0,0,0-2.42-2.42l2.05-3.56-7.46-4.3-2.05,3.55a22.71,22.71,0,0,0-3.31-.89v-4.1h-8.61v4.1a23.05,23.05,0,0,0-3.31.89l-2-3.55-7.46,4.3,2.06,3.56A22.12,22.12,0,0,0,280,157.5l-3.56-2.06-4.31,7.47,3.55,2.05a22.55,22.55,0,0,0-.88,3.3h-4.1v8.62h4.1a22.9,22.9,0,0,0,.88,3.3l-3.55,2,4.31,7.46,3.56-2.05a22.12,22.12,0,0,0,2.42,2.42l-2.06,3.56,7.46,4.3,2-3.55a23.05,23.05,0,0,0,3.31.89v4.1h8.61v-4.1a22.71,22.71,0,0,0,3.31-.89l2.05,3.55,7.46-4.3-2.05-3.56a24,24,0,0,0,2.42-2.42l3.55,2.05,4.31-7.46-3.55-2a22.9,22.9,0,0,0,.88-3.3Zm-26.79,12.8a17.11,17.11,0,1,1,17.1-17.11A17.11,17.11,0,0,1,297.46,189.68Z"/><polygon class="cls-2" points="81.42 376.84 81.13 359.77 112.25 364.88 81.42 376.84"/><polygon class="cls-2" points="90.85 347.19 98.27 340.58 107.82 356.25 90.85 347.19"/><polygon class="cls-2" points="97.09 391.17 89.85 384.37 104.6 373.45 97.09 391.17"/><path class="cls-2" d="M279.11,104.82c-7,0-7.05,10.94,0,10.94S286.16,104.82,279.11,104.82Z"/><path class="cls-2" d="M222.79,162.27c-4.36,0-4.37,6.78,0,6.78S227.15,162.27,222.79,162.27Z"/><path class="cls-2" d="M474.35,107.63c-4.36,0-4.36,6.78,0,6.78S478.72,107.63,474.35,107.63Z"/></g></g></svg>