<?xml version="1.0" standalone="no"?>
<!DOCTYPE svg PUBLIC "-//W3C//DTD SVG 20010904//EN"
 "http://www.w3.org/TR/2001/REC-SVG-20010904/DTD/svg10.dtd">
<svg version="1.0" xmlns="http://www.w3.org/2000/svg"
 width="1600.000000pt" height="900.000000pt" viewBox="0 0 1600.000000 900.000000"
 preserveAspectRatio="xMidYMid meet">

<g transform="translate(0.000000,900.000000) scale(0.100000,-0.100000)"
fill="#000000" stroke="none">
<path d="M1142 7658 c2 -6 15 -18 29 -27 l24 -15 -24 27 c-26 29 -35 34 -29
15z"/>
<path d="M1225 7650 c-10 -11 -13 -20 -8 -20 13 0 38 29 31 35 -3 3 -13 -4
-23 -15z"/>
<path d="M6810 6724 c-19 -9 -60 -24 -90 -34 -30 -11 -93 -33 -140 -50 -47
-18 -103 -38 -125 -45 -40 -14 -110 -39 -300 -110 -55 -20 -114 -41 -131 -46
-17 -5 -41 -21 -55 -36 -13 -15 -16 -21 -6 -14 9 8 19 12 22 10 2 -2 12 -36
23 -74 11 -39 36 -125 56 -193 20 -68 43 -147 51 -175 13 -48 78 -271 140
-482 14 -49 60 -207 101 -350 41 -142 91 -313 110 -380 59 -200 85 -288 99
-340 15 -54 91 -316 150 -515 50 -168 83 -284 101 -350 8 -30 19 -66 24 -80 5
-14 20 -68 35 -121 l27 -97 -92 -163 c-51 -90 -127 -225 -170 -299 -43 -74
-189 -331 -325 -570 -136 -239 -268 -470 -293 -514 l-45 -78 43 -37 c24 -20
222 -182 439 -361 628 -515 1040 -852 1266 -1038 l209 -172 906 0 905 1 41 57
c35 47 321 422 514 672 28 36 174 227 325 425 151 198 297 389 325 425 27 36
93 121 145 189 52 68 92 128 88 135 -7 11 -47 64 -534 701 -135 176 -312 408
-394 515 -82 107 -200 263 -264 345 -175 229 -257 336 -496 649 -121 159 -274
359 -340 445 -67 86 -201 262 -300 391 -98 129 -200 262 -225 295 -107 139
-185 241 -329 430 -84 110 -163 213 -174 228 -16 20 -33 29 -62 33 -22 2 -87
13 -145 24 -58 11 -127 22 -155 25 -27 3 -97 14 -155 25 -58 11 -125 22 -150
24 -25 3 -76 11 -113 17 -79 14 -75 11 -181 176 -96 152 -211 330 -271 424
l-50 77 -35 -14z"/>
<path d="M5409 5893 c-13 -16 -12 -17 4 -4 9 7 17 15 17 17 0 8 -8 3 -21 -13z"/>
<path d="M10981 4853 c-49 -4 -57 -8 -102 -55 l-49 -51 -39 36 c-61 55 -69 57
-175 50 -86 -5 -99 -9 -116 -30 -10 -13 -16 -32 -13 -43 9 -34 40 -43 124 -36
l78 6 67 -60 c38 -33 74 -60 82 -60 7 0 42 30 77 67 l63 68 79 3 c88 5 113 19
113 63 0 48 -25 53 -189 42z"/>
<path d="M11615 4643 c-19 -3 -49 -23 -80 -54 l-51 -49 -29 31 c-53 55 -76 62
-182 54 -106 -8 -140 -26 -128 -68 13 -42 34 -49 122 -42 l81 6 68 -61 c38
-33 73 -60 80 -60 6 0 41 32 78 70 l66 70 73 0 c82 0 117 16 117 55 0 43 -24
55 -108 54 -42 -1 -90 -4 -107 -6z"/>
<path d="M10733 4391 c-96 -6 -107 -11 -161 -73 -13 -16 -27 -28 -32 -28 -4 0
-30 18 -56 41 l-49 41 -105 -6 c-91 -5 -107 -9 -122 -27 -23 -27 -22 -31 2
-62 20 -25 23 -26 105 -20 l84 6 63 -57 c35 -31 72 -56 83 -56 12 0 44 25 80
64 l60 65 85 6 c90 6 110 17 110 61 0 20 -35 57 -50 52 -3 -1 -46 -4 -97 -7z"/>
<path d="M13035 3308 c-44 -16 -98 -35 -120 -43 -99 -34 -208 -75 -212 -79 -5
-5 10 -62 61 -234 20 -68 43 -147 51 -175 15 -58 94 -328 150 -517 21 -69 45
-154 55 -190 10 -36 44 -154 75 -262 l57 -197 -30 -53 c-16 -29 -74 -132 -129
-228 -251 -439 -294 -520 -288 -529 5 -10 310 -263 531 -442 51 -41 167 -136
258 -211 l166 -138 1170 0 1170 0 -112 148 c-62 81 -220 286 -351 457 -130
171 -340 445 -466 610 -126 165 -267 350 -314 410 -46 61 -184 241 -306 400
-121 160 -244 319 -271 355 -150 195 -403 525 -414 541 -9 14 -34 22 -91 29
-43 5 -125 19 -182 30 -57 11 -115 20 -128 20 -18 0 -34 16 -72 75 -26 41 -74
115 -106 165 -32 49 -61 89 -65 89 -4 -1 -43 -15 -87 -31z"/>
<path d="M12619 3103 c-13 -16 -12 -17 4 -4 16 13 21 21 13 21 -2 0 -10 -8
-17 -17z"/>
<path d="M2880 1495 c0 -1304 2 -1475 15 -1475 13 0 15 74 15 609 l0 609 32
33 c103 110 178 462 178 834 0 159 -26 427 -52 540 -42 183 -116 325 -169 325
-19 0 -19 -37 -19 -1475z"/>
<path d="M780 1480 c0 -1300 2 -1470 15 -1470 13 0 15 74 15 608 l0 609 26 24
c36 34 77 118 107 224 114 394 81 1140 -60 1382 -24 42 -76 93 -94 93 -5 0 -9
-578 -9 -1470z"/>
<path d="M1497 2207 c-4 -408 -7 -1069 -7 -1469 0 -721 0 -728 20 -728 20 0
20 7 20 609 0 584 1 610 19 623 59 41 120 199 151 393 24 146 43 412 37 511
-30 468 -109 758 -218 797 -14 5 -16 -65 -22 -736z"/>
<path d="M2196 2897 c-3 -29 -6 -690 -6 -1469 0 -1411 0 -1418 20 -1418 20 0
20 7 20 609 0 584 1 610 19 623 59 41 120 199 151 393 46 278 49 562 9 840
-39 278 -103 436 -190 467 -13 5 -18 -3 -23 -45z"/>
<path d="M12409 2913 c-13 -16 -12 -17 4 -4 16 13 21 21 13 21 -2 0 -10 -8
-17 -17z"/>
<path d="M3480 530 l0 -530 90 0 90 0 0 265 0 265 645 0 645 0 0 -265 0 -265
90 0 90 0 0 138 c0 76 3 315 7 530 l6 392 -831 0 -832 0 0 -530z m610 377 c0
-1 16 -47 35 -101 40 -113 40 -116 21 -116 -8 0 -20 16 -26 36 -11 33 -15 35
-48 32 -31 -3 -38 -7 -46 -35 -5 -21 -15 -33 -26 -33 -15 0 -13 12 17 102 19
56 36 106 39 110 5 7 34 12 34 5z m132 -94 l3 -98 43 -3 c64 -5 50 -22 -18
-22 l-60 0 0 110 c0 90 3 110 15 110 11 0 15 -20 17 -97z m234 71 c20 -19 24
-31 19 -52 -10 -40 -23 -51 -66 -58 -38 -6 -39 -8 -39 -45 0 -28 -4 -39 -15
-39 -12 0 -15 18 -15 103 0 57 3 107 7 110 3 4 24 7 45 7 28 0 46 -7 64 -26z
m154 16 c13 -8 13 -10 0 -14 -8 -3 -28 -6 -45 -8 -22 -2 -31 -9 -33 -25 -3
-17 6 -26 41 -41 52 -23 66 -52 43 -87 -18 -28 -54 -40 -91 -31 -34 9 -32 28
3 25 45 -3 60 0 66 17 8 21 -16 48 -54 64 -32 13 -45 39 -35 69 10 32 73 52
105 31z"/>
<path d="M4057 826 l-16 -46 30 0 c33 0 33 1 15 54 l-13 38 -16 -46z"/>
<path d="M4377 883 c-8 -8 -9 -77 -2 -85 13 -13 58 7 68 29 10 22 8 28 -12 44
-24 20 -43 24 -54 12z"/>
</g>
</svg>
