<svg xmlns="http://www.w3.org/2000/svg" xmlns:xlink="http://www.w3.org/1999/xlink" viewBox="0 0 913 529.41"><defs><style>.cls-1,.cls-13,.cls-14,.cls-15,.cls-16,.cls-17,.cls-18,.cls-19,.cls-20,.cls-21,.cls-22,.cls-23{fill:none;}.cls-2{isolation:isolate;}.cls-3{clip-path:url(#clip-path);}.cls-4{fill:#e8ede5;}.cls-30,.cls-5{fill:#fff;}.cls-6{fill:#aadada;}.cls-7{fill:#d1cdcc;}.cls-8{fill:#ccd793;}.cls-9{fill:#ead0be;}.cls-10{fill:#f67f14;}.cls-11{clip-path:url(#clip-path-2);}.cls-12{fill:#7faaa8;}.cls-13,.cls-15{stroke:#464646;}.cls-13,.cls-14,.cls-15,.cls-16,.cls-17,.cls-18,.cls-19,.cls-20,.cls-21,.cls-22,.cls-23{stroke-linejoin:round;}.cls-13{stroke-width:60px;}.cls-14,.cls-16,.cls-17,.cls-18,.cls-19,.cls-20,.cls-21,.cls-22,.cls-23{stroke:#fff;}.cls-14{stroke-width:50px;}.cls-15{stroke-width:40px;}.cls-16,.cls-17,.cls-18,.cls-19,.cls-20,.cls-21,.cls-22,.cls-23{stroke-linecap:round;stroke-width:4px;}.cls-17{stroke-dasharray:35 35;}.cls-18{stroke-dasharray:34.8 34.8;}.cls-19{stroke-dasharray:36.8 36.8;}.cls-20{stroke-dasharray:40.67 40.67;}.cls-21{stroke-dasharray:37.04 37.04;}.cls-22{stroke-dasharray:32.81 32.81;}.cls-23{stroke-dasharray:27.47 27.47;}.cls-24{fill:#464646;opacity:0.7;mix-blend-mode:soft-light;}.cls-25{fill:#ad718c;}.cls-26{fill:#30b8bb;}.cls-27{fill:#ffba14;}.cls-28{fill:#f9c9ad;}.cls-29{fill:#efbfa8;}.cls-30{opacity:0.55;}.cls-31{fill:#e2e2e2;}.cls-32{fill:#c8c8c8;}.cls-33{fill:#e8e0c3;}.cls-34{fill:#414141;}.cls-35{fill:#84a1f0;}.cls-36{fill:#ff7d7c;}.cls-37{fill:#85c7ff;}</style><clipPath id="clip-path" transform="translate(45 -67.59)"><polygon class="cls-1" points="800 577 0 577 0 167 188.33 186.47 154.88 292 339.07 302 359.8 246 656.85 312 731.92 423 800 411 800 577"/></clipPath><clipPath id="clip-path-2" transform="translate(45 -67.59)"><rect class="cls-1" y="123" width="800" height="358"/></clipPath></defs><title>livetour</title><g class="cls-2"><g id="Objects"><g class="cls-3"><polygon class="cls-4" points="827.74 212.41 865.57 271.12 865.57 150.38 833.7 111.41 762.66 111.41 821.3 202.41 855 202.41 855 212.41 827.74 212.41"/><polygon class="cls-4" points="24.11 268.49 60.22 212.41 24.11 212.41 24.11 268.49"/><polygon class="cls-4" points="54.3 111.41 24.11 148.32 24.11 202.41 66.66 202.41 125.27 111.41 54.3 111.41"/><path class="cls-5" d="M820.57,578h-.4l-4-8.49L788.44,512H810V488H776.88l-51-106H810V367H718.64l-41.88-87H760l60.53,94V338.71L782.74,280H810V270H776.3l-58.64-91h71l31.87,39V187.83l-17.16-21-5.7-6.85H.29l-5.7,6.72-15.48,18.94v30.25L9.3,179h71l-58.6,91H-20.89v10H15.22l-36.11,56.08V382h93l-51,106h-42v24H9.6l-27.72,57.64-2.77,5.77V597H820.57Zm-64.88-90H643.12L609.4,382h95.28ZM697.47,367H604.63L577,280H655.6ZM247.63,280h83l-14.81,87H218Zm-49.72,87H100.53l41.87-87h85.09Zm134.64,15H467.17l17.11,106H314.5ZM484,367l-14-87h87l27.67,87ZM695,179l58.62,91H672l-43.8-91Zm-88,0,43.79,91h-77l-28.94-91Zm-82.14,0,28.93,91H468.36l-14.7-91ZM367.1,179h67.29l14.69,91H351.61Zm83.6,101,14.05,87H335.1l14.81-87ZM347.78,179,332.3,270H251l31-91Zm-85.95,0-30.94,91H147.21L191,179ZM103,179H169.8L126,270H44.41ZM-18.08,367l56-87h83.25L79.36,367Zm111.4,15h99.49L156.76,488H42.31Zm32.85,196H-1l31.76-66H148.6l-20.32,59.76Zm154.29-3.31-.57,3.31H146.27l22.45-66h122.4ZM176.88,488l36.06-106h100.3l-18,106Zm122.31,90,11.23-66H488.16l10.65,66ZM486.45,382h103l33.7,106H503.56Zm31.64,196-.52-3.28L507.44,512h123.3l21,66Zm153.64,0-1.9-6-19.08-60H767.24L799,578Z" transform="translate(45 -67.59)"/><polygon class="cls-4" points="166.21 212.41 82.96 212.41 26.92 299.41 124.36 299.41 166.21 212.41"/><polygon class="cls-4" points="865.57 306.38 805.04 212.41 721.76 212.41 763.64 299.41 855 299.41 855 314.41 770.86 314.41 821.88 420.41 855 420.41 855 444.41 833.44 444.41 861.12 501.92 865.17 510.41 865.57 510.41 865.57 306.38"/><polygon class="cls-4" points="171.02 202.41 214.79 111.41 148.03 111.41 89.41 202.41 171.02 202.41"/><polygon class="cls-4" points="798.6 202.41 739.98 111.41 673.15 111.41 716.95 202.41 798.6 202.41"/><polygon class="cls-4" points="24.11 507.82 26.88 502.05 54.6 444.41 24.11 444.41 24.11 507.82"/><polygon class="cls-4" points="24.11 314.41 24.11 420.41 66.15 420.41 117.14 314.41 24.11 314.41"/><polygon class="cls-4" points="275.89 202.41 306.83 111.41 236 111.41 192.21 202.41 275.89 202.41"/><polygon class="cls-4" points="812.24 444.41 695.75 444.41 714.84 504.4 716.73 510.41 844 510.41 812.24 444.41"/><polygon class="cls-4" points="173.28 504.17 193.6 444.41 75.76 444.41 44 510.41 171.17 510.41 173.28 504.17"/><polygon class="cls-4" points="145.53 299.41 242.91 299.41 272.49 212.41 187.4 212.41 145.53 299.41"/><polygon class="cls-4" points="695.79 202.41 652 111.41 589.84 111.41 618.78 202.41 695.79 202.41"/><polygon class="cls-4" points="749.68 314.41 654.4 314.41 688.12 420.41 800.69 420.41 749.68 314.41"/><polygon class="cls-4" points="700.6 212.41 621.96 212.41 649.63 299.41 742.47 299.41 700.6 212.41"/><polygon class="cls-4" points="237.81 314.41 138.32 314.41 87.31 420.41 201.76 420.41 237.81 314.41"/><polygon class="cls-4" points="529.02 299.41 629.64 299.41 601.98 212.41 514.97 212.41 529.02 299.41"/><polygon class="cls-4" points="263.04 299.41 360.8 299.41 375.6 212.41 292.63 212.41 263.04 299.41"/><polygon class="cls-4" points="358.24 314.41 200.67 314.41 183.33 420.41 340.21 420.41 358.24 314.41"/><path class="cls-6" d="M84.83,473c-9.35,0-14-7-10.3-15.63L95,409.63C98.67,401,109.33,394,118.68,394H278.47c9.35,0,15.77,7.55,14.26,16.78l-7.44,45.44c-1.51,9.23-10.4,16.78-19.75,16.78Z" transform="translate(45 -67.59)"/><polygon class="cls-4" points="675.74 444.41 552.44 444.41 562.57 507.13 563.1 510.41 696.73 510.41 675.74 444.41"/><polygon class="cls-4" points="325.46 507.1 336.12 444.41 213.72 444.41 191.27 510.41 324.89 510.41 325.46 507.1"/><polygon class="cls-4" points="634.41 314.41 531.45 314.41 548.56 420.41 668.11 420.41 634.41 314.41"/><polygon class="cls-4" points="598.79 202.41 569.86 111.41 498.66 111.41 513.36 202.41 598.79 202.41"/><polygon class="cls-4" points="377.3 202.41 392.79 111.41 326.99 111.41 296.03 202.41 377.3 202.41"/><polygon class="cls-4" points="380.1 299.41 509.75 299.41 495.7 212.41 394.91 212.41 380.1 299.41"/><polygon class="cls-4" points="355.42 444.41 344.19 510.41 543.81 510.41 533.16 444.41 355.42 444.41"/><polygon class="cls-4" points="494.08 202.41 479.39 111.41 479 111.41 412.1 111.41 396.61 202.41 494.08 202.41"/><polygon class="cls-4" points="512.17 314.41 377.55 314.41 359.5 420.41 529.28 420.41 512.17 314.41"/><path class="cls-7" d="M376,441.92a7.93,7.93,0,0,1-8-7.92V409.33a8,8,0,0,0-8-8h-8.45a9.48,9.48,0,0,0-9.1,7.93l-8,57.82a6.79,6.79,0,0,0,6.9,7.92H462a6.46,6.46,0,0,0,6.58-7.87l-3.29-18.26a9.84,9.84,0,0,0-9.42-7.79Z" transform="translate(45 -67.59)"/><path class="cls-7" d="M395.72,402.46c-2.6-3.55-1.12-6.46,3.28-6.46h49a9.66,9.66,0,0,1,9.22,7.91l1.56,10.18A6.67,6.67,0,0,1,452,422H418a17.79,17.79,0,0,1-12.72-6.46Z" transform="translate(45 -67.59)"/><path class="cls-8" d="M512.36,399a6.51,6.51,0,0,0-6.6,7.91l9.84,55.24A9.92,9.92,0,0,0,525,470h70c4.4,0,7-3.44,5.66-7.65l-17.11-56a11.44,11.44,0,0,0-10.33-7.62Z" transform="translate(45 -67.59)"/><path class="cls-9" d="M683.36,524.06c-4.4,0-7,3.38-5.67,7.59l17,55.7A11.49,11.49,0,0,0,705,595h75c4.4,0,6.64-3.33,5-7.4l-22.72-55.53a13.07,13.07,0,0,0-11-7.47Z" transform="translate(45 -67.59)"/><path class="cls-7" d="M631.53,404.59c-1.39-4.17,1.07-7.59,5.47-7.59h55a14.22,14.22,0,0,1,11.58,7.16l4.84,9.68c2,3.94,0,7.16-4.42,7.16H645a11.88,11.88,0,0,1-10.53-7.59Z" transform="translate(45 -67.59)"/><path class="cls-7" d="M644.67,441.54c-1.47-4.15.93-7.54,5.33-7.54h59a14.9,14.9,0,0,1,11.83,7l10.34,19c2.11,3.86.23,7-4.17,7H661.67A12.15,12.15,0,0,1,651,459.46Z" transform="translate(45 -67.59)"/><path class="cls-7" d="M324.92,588.73a6.66,6.66,0,0,1-6.72-8l7.49-46.21a9.72,9.72,0,0,1,9.28-7.87l128.74.29a10.34,10.34,0,0,1,9.65,7.85l10,47.34a6.18,6.18,0,0,1-6.35,7.77Z" transform="translate(45 -67.59)"/><path class="cls-8" d="M581.18,569.17c-3-14.2-7.87-34.63-7.87-34.63a10.66,10.66,0,0,0-9.84-7.8L535,526.68a6.26,6.26,0,0,0-6.39,7.82l9.78,47.66a9.88,9.88,0,0,0,9.61,7.59l29.42-.92a6.4,6.4,0,0,0,6.27-8.06S582.56,575.65,581.18,569.17Z" transform="translate(45 -67.59)"/><path class="cls-6" d="M590.22,566.68c1.61,7.21,3.12,13.8,3.12,13.8a10.15,10.15,0,0,0,9.78,7.55l24.88-.78c4.4-.14,6.81-3.65,5.36-7.8L617.64,534.4A12.12,12.12,0,0,0,607,526.83l-18.26,0a6,6,0,0,0-6.09,7.76S587.27,553.39,590.22,566.68Z" transform="translate(45 -67.59)"/><path class="cls-10" d="M303.63,314.67a10.19,10.19,0,0,0,9.56-7.85l1.58-8a6.33,6.33,0,0,0-6.44-7.85H263.42a11.55,11.55,0,0,0-10.36,7.65L250.49,307c-1.3,4.21,1.24,7.65,5.64,7.65Z" transform="translate(45 -67.59)"/><path class="cls-7" d="M254.29,320.67a11.56,11.56,0,0,0-10.36,7.64l-5.24,17c-1.3,4.21,1.24,7.65,5.64,7.65H296a10.18,10.18,0,0,0,9.56-7.85l3.31-16.64a6.32,6.32,0,0,0-6.44-7.84Z" transform="translate(45 -67.59)"/><path class="cls-8" d="M26,349H66a14.6,14.6,0,0,0,11.73-7.08l21.54-40.84c2-3.9.13-7.08-4.27-7.08H83a14.67,14.67,0,0,0-11.75,7.06l-9.5,17.88A14.67,14.67,0,0,1,50,326H32a19.37,19.37,0,0,0-13.1,6.17l-8.8,10.66C7.29,346.22,8.6,349,13,349Z" transform="translate(45 -67.59)"/><path class="cls-8" d="M17,578.51l20.62-44.26A13.72,13.72,0,0,1,49,527h68c4.4,0,7,3.45,5.7,7.66l-1.4,4.68A11.45,11.45,0,0,1,111,547H91c-4.4,0-9.12,2.92-10.5,6.5S81.6,560,86,560h21a6.25,6.25,0,0,1,6.37,7.83l-1.74,8.34a9.9,9.9,0,0,1-9.63,7.57L17,581" transform="translate(45 -67.59)"/><path class="cls-7" d="M178,530h25c4.4,0,6.94,3.44,5.64,7.64l-1.76,5.72c-1.3,4.2,1.24,7.64,5.64,7.64H216a9.71,9.71,0,0,0,9.25-7.9l1-6.2a9.71,9.71,0,0,1,9.25-7.9H265a6.21,6.21,0,0,1,6.32,7.82l-7.81,36.36a10.37,10.37,0,0,1-9.68,7.82H172c-4.4,0-7.05-3.47-5.88-7.71Z" transform="translate(45 -67.59)"/><path class="cls-7" d="M754,397.33c3.4.67,67,0,67,0V437H774Z" transform="translate(45 -67.59)"/><path class="cls-7" d="M48,397.33c-3.4.67-67,0-67,0V437H28Z" transform="translate(45 -67.59)"/><path class="cls-9" d="M431,294c3.85,0,7.44,3.57,8,7.94l5.16,42.12a6.92,6.92,0,0,1-7,7.94H405a8,8,0,0,1-8-8v-8a8,8,0,0,1,8-8h11a8,8,0,0,0,8-8V302C424,297.6,427.15,294,431,294Z" transform="translate(45 -67.59)"/><path class="cls-8" d="M85,241a14.81,14.81,0,0,0-11.8,7L71.63,251c-2.09,3.87-.2,7,4.2,7H86a12.57,12.57,0,0,0,10.87-7.47l.79-2.06c1.58-4.11-.73-7.47-5.13-7.47Z" transform="translate(45 -67.59)"/></g><g class="cls-11"><path class="cls-12" d="M838,456H723.58a30,30,0,0,1-27.13-17.22L649,338H524.88a30,30,0,0,1-29.06-22.54L486.72,280h-105l-5.05,32.6A30,30,0,0,1,347,338H131a30,30,0,0,1-26.83-43.42L143.46,216H-15a30,30,0,0,1-30-30,30,30,0,0,1,30-30H192a30,30,0,0,1,26.83,43.42L179.54,278H321.3l5.05-32.6A30,30,0,0,1,356,220H510a30,30,0,0,1,29.06,22.54l9.1,35.46H668a30,30,0,0,1,27.14,17.22L742.62,396H838a30,30,0,0,1,0,60Z" transform="translate(45 -67.59)"/><polyline class="cls-13" points="30 111.41 237 111.41 176 233.41 392 233.41 401 175.41 555 175.41 569.88 233.41 713 233.41 768.59 351.41 883 351.41"/><polyline class="cls-14" points="30 111.41 237 111.41 176 233.41 392 233.41 401 175.41 555 175.41 569.88 233.41 713 233.41 768.59 351.41 883 351.41"/><polyline class="cls-15" points="30 111.41 237 111.41 176 233.41 392 233.41 401 175.41 555 175.41 569.88 233.41 713 233.41 768.59 351.41 883 351.41"/><line class="cls-16" x1="30" y1="110.41" x2="46" y2="110.41"/><line class="cls-17" x1="81" y1="110.41" x2="203.5" y2="110.41"/><polyline class="cls-16" points="221 110.41 237 110.41 229.84 124.72"/><line class="cls-18" x1="214.28" y1="155.85" x2="190.94" y2="202.54"/><polyline class="cls-16" points="183.16 218.1 176 232.41 192 232.41"/><line class="cls-19" x1="228.8" y1="232.41" x2="357.6" y2="232.41"/><polyline class="cls-16" points="376 232.41 392 232.41 394.45 216.6"/><polyline class="cls-16" points="398.55 190.22 401 174.41 417 174.41"/><line class="cls-20" x1="457.67" y1="174.41" x2="518.67" y2="174.41"/><polyline class="cls-16" points="539 174.41 555 174.41 558.98 189.91"/><polyline class="cls-16" points="565.9 216.91 569.88 232.41 585.88 232.41"/><line class="cls-21" x1="622.92" y1="232.41" x2="678.48" y2="232.41"/><polyline class="cls-16" points="697 232.41 713 232.41 719.82 246.89"/><line class="cls-22" x1="733.8" y1="276.57" x2="754.78" y2="321.09"/><polyline class="cls-16" points="761.77 335.94 768.59 350.41 784.59 350.41"/><line class="cls-23" x1="812.06" y1="350.41" x2="853.26" y2="350.41"/><line class="cls-16" x1="867" y1="350.41" x2="883" y2="350.41"/></g><path class="cls-10" d="M167.78,104.87c0,29.62-37.28,71.43-37.28,71.43s-37.28-42.51-37.28-71.43a37.28,37.28,0,0,1,74.56,0Z" transform="translate(45 -67.59)"/><path class="cls-24" d="M130.5,67.59V176.3s37.28-41.81,37.28-71.43A37.28,37.28,0,0,0,130.5,67.59Z" transform="translate(45 -67.59)"/><path class="cls-5" d="M158.44,104.87A27.94,27.94,0,1,1,130.5,76.93,27.94,27.94,0,0,1,158.44,104.87Z" transform="translate(45 -67.59)"/><path class="cls-25" d="M384,442.57c0,18-22.64,43.37-22.64,43.37s-22.63-25.81-22.63-43.37a22.64,22.64,0,1,1,45.27,0Z" transform="translate(45 -67.59)"/><path class="cls-24" d="M361.34,419.93v66S384,460.55,384,442.57A22.64,22.64,0,0,0,361.34,419.93Z" transform="translate(45 -67.59)"/><path class="cls-5" d="M378.31,442.57a17,17,0,1,1-17-17A17,17,0,0,1,378.31,442.57Z" transform="translate(45 -67.59)"/><path class="cls-26" d="M327.78,226.87c0,29.62-37.28,71.43-37.28,71.43s-37.28-42.51-37.28-71.43a37.28,37.28,0,1,1,74.56,0Z" transform="translate(45 -67.59)"/><path class="cls-24" d="M290.5,189.59V298.3s37.28-41.81,37.28-71.43A37.28,37.28,0,0,0,290.5,189.59Z" transform="translate(45 -67.59)"/><path class="cls-5" d="M318.44,226.87a27.94,27.94,0,1,1-27.94-27.94A27.94,27.94,0,0,1,318.44,226.87Z" transform="translate(45 -67.59)"/><path class="cls-27" d="M546.78,171.87c0,29.62-37.28,71.43-37.28,71.43s-37.28-42.51-37.28-71.43a37.28,37.28,0,1,1,74.56,0Z" transform="translate(45 -67.59)"/><path class="cls-24" d="M509.5,134.59V243.3s37.28-41.81,37.28-71.43A37.28,37.28,0,0,0,509.5,134.59Z" transform="translate(45 -67.59)"/><path class="cls-5" d="M537.44,171.87a27.94,27.94,0,1,1-27.94-27.94A27.94,27.94,0,0,1,537.44,171.87Z" transform="translate(45 -67.59)"/><path class="cls-28" d="M447.27,453.25v28a2.65,2.65,0,0,1-3.93,2.33c-3.63-2-8.48-5.66-8.48-11.17v-20Z" transform="translate(45 -67.59)"/><path class="cls-28" d="M443,367.87s7.12-5.6,12.16-2,0,13.5,0,13.5a111.34,111.34,0,0,1-10.08,12.84c-5,5.27-4.85,4.54-4.85,4.54V369.89Z" transform="translate(45 -67.59)"/><rect class="cls-29" x="406.21" y="356.01" width="12.7" height="36.1"/><path class="cls-28" d="M461.2,419c-3.72,3-10.13,5.54-21,4.36V401.22l6.6,2.95.06,0,2.28,1.3a73.2,73.2,0,0,0,10.55,4.42l.26.1A5.29,5.29,0,0,1,461.2,419Z" transform="translate(45 -67.59)"/><path class="cls-28" d="M380.69,480.5h44.74s-12,32.58-40.32,43.64l-1.62,26.71H313Z" transform="translate(45 -67.59)"/><path class="cls-28" d="M453.28,459.61c-4.81-1.2-11.72-4.18-12.52-11.45v-23l6.62,3.05a9.34,9.34,0,0,1,5.24,6.58l1.63,7.77L457,455.78l.05.21A3.09,3.09,0,0,1,453.28,459.61Z" transform="translate(45 -67.59)"/><path class="cls-30" d="M460,410a2.31,2.31,0,0,1-2.62.87l-.47-.14a21.06,21.06,0,0,1-10-6.55l2.28,1.3a73.2,73.2,0,0,0,10.55,4.42Z" transform="translate(45 -67.59)"/><path class="cls-30" d="M457,455.78l-.31-.07a3.53,3.53,0,0,1-2.23-3.06l-.09-.66a37.15,37.15,0,0,1-.13-9.46Z" transform="translate(45 -67.59)"/><path class="cls-30" d="M447.27,465.11v15.76l-.64-.19a3,3,0,0,1-1.79-2.93v-.59A29.05,29.05,0,0,1,447.27,465.11Z" transform="translate(45 -67.59)"/><rect class="cls-5" x="412.37" y="264.03" width="77.46" height="149.04" rx="38.73"/><rect class="cls-5" x="412.37" y="264.03" width="77.46" height="149.04" rx="38.73"/><path class="cls-5" d="M444.83,342.58V469.7a10.9,10.9,0,0,1-2.41,6.85,8.07,8.07,0,0,1-.78.87l-.39.38a10.22,10.22,0,0,1-.88.72,10.95,10.95,0,0,1-6.5,2.14H378.33c-.32,0-.63,0-.94,0a10.89,10.89,0,0,1-2.74-.6,11.37,11.37,0,0,1-1.09-.45c-.24-.11-.47-.24-.71-.37a11.26,11.26,0,0,1-2.85-2.38,10.91,10.91,0,0,1-2.63-7.12V342.58a9.1,9.1,0,0,1,0-.91,11,11,0,0,1,.23-1.54,10.71,10.71,0,0,1,1.05-2.78,11,11,0,0,1,6.17-5.17,10.79,10.79,0,0,1,3.47-.57h55.54a11.93,11.93,0,0,1,1.7.13,11.18,11.18,0,0,1,1.39.32,2.29,2.29,0,0,1,.37.12,9.38,9.38,0,0,1,.93.35,11,11,0,0,1,3.24,2.18,11.48,11.48,0,0,1,1.39,1.64A10.93,10.93,0,0,1,444.83,342.58Z" transform="translate(45 -67.59)"/><path class="cls-31" d="M442.89,336.35a11.48,11.48,0,0,0-1.39-1.64,11,11,0,0,0-3.24-2.18l0-.35h-1a2.29,2.29,0,0,0-.37-.12,11.18,11.18,0,0,0-1.39-.32,11.93,11.93,0,0,0-1.7-.13H378.33a10.79,10.79,0,0,0-3.47.57,11,11,0,0,0-6.17,5.17,10.71,10.71,0,0,0-1.05,2.78,11,11,0,0,0-.23,1.54,9.1,9.1,0,0,0,0,.91V469.7a10.91,10.91,0,0,0,2.63,7.12,11.26,11.26,0,0,0,2.85,2.38c.24.13.47.26.71.37a11.37,11.37,0,0,0,1.09.45,10.89,10.89,0,0,0,2.74.6c.31,0,.62,0,.94,0h55.54a10.95,10.95,0,0,0,6.5-2.14,10.22,10.22,0,0,0,.88-.72l.39-.38a8.07,8.07,0,0,0,.78-.87,10.9,10.9,0,0,0,2.41-6.85V342.58A10.93,10.93,0,0,0,442.89,336.35Z" transform="translate(45 -67.59)"/><polygon class="cls-32" points="426.38 333.14 413.17 329.44 414.57 327.51 438.7 305.33 452.65 293.42 451.59 310.14 426.38 333.14"/><path class="cls-32" d="M442.23,463.75v.07l-1,14a10.22,10.22,0,0,1-.88.72,10.95,10.95,0,0,1-6.5,2.14H405.05l.14-1.09,1.4-10.12,13.26-.11.76-8.15Z" transform="translate(45 -67.59)"/><polygon class="cls-32" points="469.4 351.32 447.43 350.01 445.77 375.68 467.4 378.35 469.4 351.32"/><polygon class="cls-32" points="445.77 375.68 443.94 406.27 442.77 411.98 442.55 413.07 438.15 413.07 431.02 411.98 421.33 410.51 424.82 373.23 445.77 375.68"/><polygon class="cls-32" points="489.83 315.49 489.83 328.64 471.41 325.78 473.3 304.76 478.96 299.39 489.83 315.49"/><polygon class="cls-32" points="477.3 285.11 452.38 308.7 451.85 306 453.28 286.74 465.42 286.27 478.63 283.5 477.3 285.11"/><path class="cls-32" d="M367.64,340.13a11,11,0,0,0-.23,1.54,9.1,9.1,0,0,0,0,.91v12l6.43-6.37Z" transform="translate(45 -67.59)"/><polygon class="cls-32" points="427.89 337.34 427.04 347.78 427.04 347.78 425.52 348.39 423.84 348.81 412.72 361.41 412.63 369.06 412.37 369.56 412.37 339.9 419.35 340.23 425.52 334.39 427.89 337.34"/><polygon class="cls-31" points="489.83 354.14 489.83 368.23 488.83 380.06 467.4 378.33 466.84 378.28 469.16 351.63 469.37 351.65 489.83 354.14"/><path class="cls-33" d="M444.83,449.48V469.7a10.9,10.9,0,0,1-2.41,6.85,8.07,8.07,0,0,1-.78.87l.58-13.6,1.31-14.34Z" transform="translate(45 -67.59)"/><polygon class="cls-31" points="448.47 348.81 443.56 349.38 427.04 347.78 427.89 337.34 427.04 334.39 430.95 328.97 451.38 310.22 448.47 348.81"/><path class="cls-32" d="M437,332.06l0,.12L436,338l-2.81.93-13.32,15-.25.29H407.91l2.07-22,.06-.57h23.83a11.93,11.93,0,0,1,1.7.13A11.18,11.18,0,0,1,437,332.06Z" transform="translate(45 -67.59)"/><path class="cls-5" d="M436.81,347.93l8-2.15v-2.39L437,345.48l.71-7.58,5.14-1.55a11.48,11.48,0,0,0-1.39-1.64L438,335.77l.31-3.24,0-.35h-1a2.29,2.29,0,0,0-.37-.12,11.18,11.18,0,0,0-1.39-.32l-.05.44-.41,4.45-.77.23L429,342.19l-9.83,11.27H409.7l1.89-21.28.05-.57h-2.76l-.05.57-1.86,21-11.09-2.4-12.05-1.6-5.7,1.45-2.2-3.09,1.5-1.55,3.14-4.41,1.54,5.61,5.68,1.77,10.82-2.21V331.61H397v13.44l-5.55,1.13v-7.84h-4.52l.76-6.16.07-.57h-.83l-.07.57-.89,7.16h4.66v7l-2.73.55-4.47-1.39-2.18-7.92-4.9,6.92-1.46,1.5-6.16-8.66a10.71,10.71,0,0,0-1.05,2.78,11,11,0,0,0-.23,1.54l4.92,6.93-5,5.11v2.62l6-6.21,11.83,16.63-1.3,1.38-7-10.21-5.07,5.69.93,1.23,4-4.5,7,10.17,2.35-2.5,4.61,6.48-5.82,5.21-2.5-3.19-3.67,4.76-3.78,2.1-5-5.24-.9,1.26,5.62,5.94,4.83-2.67,2.86-3.72,1.38,1.75-15.75,14.1-.69-.26V398l10.92,4.06-4.54,4.35-6.38-.3v3.34l7.29.35,6-5.79.89,2.14-.84,8.7-1.53.4-11.83,13.14v18.11l.59-6.09,10.11,1.9v.1h0l-1.6,20.11-9.12-.9V464l8.93.87-1,12.63-5.3-.67a11.26,11.26,0,0,0,2.85,2.38l2,.25,0,.12-.13.45a10.89,10.89,0,0,0,2.74.6l.24-.82,6.74.86H399l.2-1.09.73-4,1.19-15.78L419.7,462l-.57,6.41H405.88l-1.34,11.12-.13,1.09h1.66l.13-1.09,1.1-9.12h13.31l.74-8.22,19.86,2.41-.84,13.88a10.22,10.22,0,0,0,.88-.72l.39-.38a8.07,8.07,0,0,0,.78-.87l.87-14.42,1.18-11.93.36,0v-3.35h0l0-.26V421.16l-19.57-2.62,2.15-24,17.42,3.16v-2l-17.24-3.13,1.79-19.95,4-4.07L444.83,385v-3.63L434.9,367l4.56-4.61,5.37,7.3v-3l-5.2-7.07-.06.06-4.8-7.56,1.81-1.74Zm4.57,113.94-.05.77-19.81-2.39,1.13-12.6L442.56,450Zm-60.26-22.44,2.22-23L401.58,418l-1.89,23.63Zm38.71-84,.23-.26,8.89-1.75-21,20.19,1.62-18.19Zm-36.29,59,.85-8.84-1.5-3.65,21.62-20.76L401.73,416ZM406,364.15l-1.1,12.39-24,23-10.22-3.79Zm-3.56,77.78,1.89-23.69,19.12,2.11-2.13,23.79Zm20.52,2.4,2.13-23.8,19.67,2.63L444,435.74l-1.08,10.92Zm-43.59-92,4.55-1.16,11.71,1.56,11.17,2.42-.48,5.38-12.9,11.55Zm-11.19,84.74v-6.87L380,417.11l.54-.14-2.13,22Zm28.05,43.06-4.56-.58L378,477.84l2.79-35.09,18.61,2.18-2.27,30.13-.83,4.51Zm5-22.36.95-12.54L421,447.46l-1.13,12.59Zm22.4-39.43-3.43-.38V407.29h-5.14v-5.14h-1.37V409h5.13v8.87l-14.33-1.58,2-24.75,19.33,2.76Zm14.89-57.61-10.7,10.79L426,392.27l-2.87-.41v-13.1h-1.38v12.9l-15.1-2.15.89-11.19v0l26.19-25.13ZM434,348.63l-2.82,2.7-9.32,1.83,8.23-9.44,4.82-4.82Z" transform="translate(45 -67.59)"/><path class="cls-5" d="M373.56,479.57a11.37,11.37,0,0,0,1.09.45,10.89,10.89,0,0,0,2.74.6c.31,0,.62,0,.94,0h55.54a10.87,10.87,0,0,0,4.76-1.09ZM437,332.06a11.18,11.18,0,0,0-1.39-.32,11.93,11.93,0,0,0-1.7-.13H378.33a10.79,10.79,0,0,0-3.47.57h62.47A2.29,2.29,0,0,0,437,332.06Z" transform="translate(45 -67.59)"/><rect class="cls-1" x="414.35" y="266.01" width="73.5" height="145.08" rx="8.98"/><path class="cls-34" d="M433.87,329.63H378.33a13,13,0,0,0-12.95,12.95V469.7a13,13,0,0,0,12.95,12.94h55.54a13,13,0,0,0,12.94-12.94V342.58A13,13,0,0,0,433.87,329.63ZM369.35,469.7V342.58a9,9,0,0,1,9-9h55.54a9,9,0,0,1,9,9V469.7a9,9,0,0,1-9,9H378.33A9,9,0,0,1,369.35,469.7Z" transform="translate(45 -67.59)"/><path class="cls-28" d="M371.72,522.31l-11,28.54H313s23-36.83,24.28-48.18-4.08-26.81,2.17-47.26c2.64-8.67,3.78-11.05,8.43-25.88a125.88,125.88,0,0,0,5.23-25.91c.13-1.38.24-2.76.32-4.14.22-3.61.54-7.26,1-9.83.09-.5.18-1,.28-1.37.28-1.19.6-2,1-2.14,2.34-1.09,8.34,4.46,9.36,6.3,1.52,2.72,3.06,5.22,3.43,14.23s0,16.75-1.44,22.34c-.64,2.44-1.47,5.34-2.22,7.82a12,12,0,0,0,1.66,10.23c4.94,7.09,13.61,21.73,14.76,38.23C382.86,508.52,371.72,522.31,371.72,522.31Z" transform="translate(45 -67.59)"/><path class="cls-35" d="M307,550.85l18.3-29.91h0a180,180,0,0,1,62.8,9.23l1.43.48v20.2h0a153.56,153.56,0,0,1-81.36.32Z" transform="translate(45 -67.59)"/><path class="cls-36" d="M423.34,434.53a3.27,3.27,0,0,0-3.27,3.28c0,3.55,3.27,6.54,3.27,6.54s3.28-3,3.28-6.54A3.28,3.28,0,0,0,423.34,434.53Z" transform="translate(45 -67.59)"/><path class="cls-5" d="M425.67,437.87a2.33,2.33,0,1,1-2.33-2.33A2.32,2.32,0,0,1,425.67,437.87Z" transform="translate(45 -67.59)"/><path class="cls-37" d="M211.19,344.32a3.28,3.28,0,0,0-3.28,3.28c0,3.55,3.28,6.54,3.28,6.54s3.28-3,3.28-6.54A3.28,3.28,0,0,0,211.19,344.32Z" transform="translate(45 -67.59)"/><circle class="cls-5" cx="211.19" cy="347.66" r="2.33" transform="translate(-150.12 260.69) rotate(-55.99)"/><path class="cls-35" d="M423.49,446a.71.71,0,0,1-.79.62L400.91,444a.93.93,0,0,1-.82-1l6.35-79.92-12.7,11.69a.94.94,0,0,1-1.39-.14L378,355.15a.7.7,0,0,1,.07-.92h0a.7.7,0,0,1,1.07.08l14,19.05,13.21-12.15a1,1,0,0,1,1.05-.15.93.93,0,0,1,.52.92l-6.42,80.67,21.34,2.57A.71.71,0,0,1,423.49,446Z" transform="translate(45 -67.59)"/><path class="cls-30" d="M359,392l-.09.48a21,21,0,0,1-5.8,11.11c.13-1.38.24-2.76.32-4.14.22-3.61.54-7.26,1-9.83.09-.5.18-1,.28-1.37l3,1.17A2.28,2.28,0,0,1,359,392Z" transform="translate(45 -67.59)"/><line class="cls-1" x1="256.68" y1="288.06" x2="255.67" y2="289.07"/><circle class="cls-37" cx="256.19" cy="288.56" r="1.31"/><circle class="cls-5" cx="256.19" cy="288.56" r="0.8"/><circle class="cls-36" cx="423.34" cy="446.17" r="1.31" transform="translate(-46.18 41.61) rotate(-13.28)"/><path class="cls-5" d="M424.15,446.17a.81.81,0,1,0-.81.8A.81.81,0,0,0,424.15,446.17Z" transform="translate(45 -67.59)"/></g></g></svg>